<svg xmlns="http://www.w3.org/2000/svg" viewBox="0 0 841.9 595.3"><g fill="#61DAFB">
<path fill="#77BC1F" d="M51.5,37.9l-0.6-0.1c0.1-0.5,0.5-0.8,1.2-0.8c0.4,0,0.7,0.1,0.9,0.3c0.2,0.2,0.3,0.4,0.3,0.6c0,0.2,0,0.3-0.1,0.4c-0.1,0.1-0.2,0.2-0.4,0.3c0.2,0.1,0.4,0.2,0.5,0.3c0.1,0.1,0.2,0.3,0.2,0.5c0,0.3-0.1,0.5-0.3,0.7c-0.2,0.2-0.5,0.3-0.9,0.3c-0.3,0-0.6-0.1-0.8-0.2c-0.2-0.1-0.3-0.3-0.4-0.6l0.6-0.2c0.1,0.2,0.1,0.3,0.2,0.4c0.1,0.1,0.2,0.1,0.4,0.1c0.2,0,0.4,0,0.5-0.1c0.1-0.1,0.1-0.2,0.1-0.3c0-0.1-0.1-0.2-0.2-0.3c-0.1-0.1-0.3-0.1-0.5-0.1h-0.1v-0.5h0.1c0.2,0,0.4,0,0.5-0.1c0.1-0.1,0.2-0.2,0.2-0.4c0-0.1,0-0.2-0.1-0.3c-0.1-0.1-0.2-0.1-0.4-0.1C51.7,37.5,51.6,37.6,51.5,37.9z"></path><path fill="#77BC1F" d="M57.1,40.2h-0.7l-0.3-0.7h-1.3l-0.3,0.7h-0.7l1.3-3.2h0.7L57.1,40.2z M55.9,39l-0.4-1.2L55,39H55.9z"></path><path fill="#77BC1F" d="M57.8,37h1.3c0.3,0,0.4,0,0.6,0c0.1,0,0.2,0.1,0.3,0.1s0.2,0.2,0.2,0.3c0.1,0.1,0.1,0.2,0.1,0.4c0,0.2,0,0.3-0.1,0.4c-0.1,0.1-0.2,0.2-0.3,0.3c0.2,0.1,0.3,0.2,0.5,0.3c0.1,0.1,0.2,0.3,0.2,0.5c0,0.1,0,0.3-0.1,0.4c-0.1,0.1-0.2,0.3-0.3,0.3c-0.1,0.1-0.3,0.1-0.4,0.2c-0.1,0-0.4,0-0.8,0h-1.1V37z M58.5,37.5v0.7h0.4c0.3,0,0.4,0,0.5,0c0.1,0,0.2-0.1,0.3-0.1c0.1-0.1,0.1-0.1,0.1-0.3c0-0.1,0-0.2-0.1-0.2c-0.1-0.1-0.1-0.1-0.2-0.1c-0.1,0-0.3,0-0.6,0H58.5z M58.5,38.8v0.9h0.6c0.2,0,0.4,0,0.4,0c0.1,0,0.2-0.1,0.2-0.1c0.1-0.1,0.1-0.2,0.1-0.3c0-0.1,0-0.2-0.1-0.2c0-0.1-0.1-0.1-0.2-0.1s-0.3,0-0.6,0H58.5z"></path><path fill="#77BC1F" d="M61.2,38.6c0-0.3,0-0.6,0.1-0.8c0.1-0.2,0.2-0.3,0.3-0.4c0.1-0.1,0.3-0.2,0.4-0.3c0.2-0.1,0.4-0.1,0.7-0.1c0.5,0,0.9,0.1,1.1,0.4c0.3,0.3,0.4,0.7,0.4,1.2c0,0.5-0.1,0.9-0.4,1.2c-0.3,0.3-0.7,0.4-1.1,0.4c-0.5,0-0.9-0.1-1.1-0.4C61.3,39.6,61.2,39.2,61.2,38.6z M61.8,38.6c0,0.4,0.1,0.6,0.3,0.8c0.2,0.2,0.4,0.3,0.6,0.3c0.3,0,0.5-0.1,0.6-0.3c0.2-0.2,0.3-0.5,0.3-0.8c0-0.4-0.1-0.6-0.2-0.8c-0.2-0.2-0.4-0.3-0.6-0.3c-0.3,0-0.5,0.1-0.7,0.3C61.9,38,61.8,38.2,61.8,38.6z"></path><path fill="#77BC1F" d="M65.4,37h2.2v2.7h0.3v1.2h-0.5v-0.7h-2v0.7h-0.5v-1.2H65c0.1-0.3,0.2-0.6,0.3-1c0-0.4,0.1-0.8,0.1-1.4V37z M66,37.5c0,1-0.1,1.7-0.3,2.2h1.2v-2.2H66z"></path><path fill="#77BC1F" d="M70.2,40.2V37h1c0.4,0,0.7,0,0.8,0c0.2,0,0.3,0.2,0.5,0.3c0.1,0.2,0.2,0.4,0.2,0.6c0,0.2,0,0.4-0.1,0.5c-0.1,0.1-0.2,0.2-0.3,0.3c-0.1,0.1-0.2,0.1-0.3,0.2c-0.2,0-0.4,0-0.7,0h-0.4v1.2H70.2z M70.9,37.5v0.9h0.4c0.3,0,0.4,0,0.5-0.1c0.1,0,0.2-0.1,0.2-0.2c0-0.1,0.1-0.2,0.1-0.3c0-0.1,0-0.2-0.1-0.3c-0.1-0.1-0.2-0.1-0.3-0.1c-0.1,0-0.2,0-0.5,0H70.9z"></path><path fill="#77BC1F" d="M73.6,40.2V37H76v0.5h-1.7v0.7h1.6v0.5h-1.6v0.9h1.8v0.5H73.6z"></path><path fill="#77BC1F" d="M77,37h0.7v2.7h0.9V37h0.7v2.7h1V37h0.7l0,3.2l-3.9,0V37z"></path><path fill="#77BC1F" d="M81.8,40.2V37h0.7v3.2H81.8z"></path><path fill="#77BC1F" d="M84.2,40.2v-2.7h-1V37h2.6v0.5h-1v2.7H84.2z"></path><path fill="#77BC1F" d="M86.5,37h0.7v1.4c0.1,0,0.2-0.1,0.3-0.1c0.1-0.1,0.1-0.2,0.2-0.5c0.1-0.3,0.3-0.6,0.4-0.7c0.1-0.1,0.4-0.1,0.7-0.1c0,0,0,0,0.1,0v0.5l-0.1,0c-0.1,0-0.2,0-0.3,0c-0.1,0-0.1,0.1-0.1,0.2c0,0.1-0.1,0.2-0.2,0.4c0,0.1-0.1,0.2-0.1,0.3c0,0.1-0.1,0.1-0.2,0.2c0.1,0,0.3,0.1,0.4,0.2c0.1,0.1,0.2,0.3,0.3,0.5l0.4,0.9h-0.8l-0.4-0.8c0,0,0,0,0-0.1c0,0,0-0.1-0.1-0.2c-0.1-0.2-0.2-0.3-0.2-0.3c-0.1,0-0.1-0.1-0.2-0.1v1.4h-0.7V37z"></path><path fill="#77BC1F" d="M89.5,38.6c0-0.3,0-0.6,0.1-0.8c0.1-0.2,0.2-0.3,0.3-0.4c0.1-0.1,0.3-0.2,0.4-0.3c0.2-0.1,0.4-0.1,0.7-0.1c0.5,0,0.9,0.1,1.1,0.4s0.4,0.7,0.4,1.2c0,0.5-0.1,0.9-0.4,1.2c-0.3,0.3-0.7,0.4-1.1,0.4c-0.5,0-0.9-0.1-1.1-0.4C89.6,39.6,89.5,39.2,89.5,38.6z M90.2,38.6c0,0.4,0.1,0.6,0.3,0.8c0.2,0.2,0.4,0.3,0.6,0.3c0.3,0,0.5-0.1,0.6-0.3c0.2-0.2,0.3-0.5,0.3-0.8c0-0.4-0.1-0.6-0.2-0.8c-0.2-0.2-0.4-0.3-0.6-0.3c-0.3,0-0.5,0.1-0.7,0.3C90.3,38,90.2,38.2,90.2,38.6z"></path><path fill="#77BC1F" d="M93.5,37h1.3c0.3,0,0.4,0,0.6,0c0.1,0,0.2,0.1,0.3,0.1s0.2,0.2,0.2,0.3c0.1,0.1,0.1,0.2,0.1,0.4c0,0.2,0,0.3-0.1,0.4c-0.1,0.1-0.2,0.2-0.3,0.3c0.2,0.1,0.3,0.2,0.5,0.3c0.1,0.1,0.2,0.3,0.2,0.5c0,0.1,0,0.3-0.1,0.4c-0.1,0.1-0.2,0.3-0.3,0.3c-0.1,0.1-0.3,0.1-0.4,0.2c-0.1,0-0.4,0-0.8,0h-1.1V37z M94.1,37.5v0.7h0.4c0.3,0,0.4,0,0.5,0c0.1,0,0.2-0.1,0.3-0.1s0.1-0.1,0.1-0.3c0-0.1,0-0.2-0.1-0.2c-0.1-0.1-0.1-0.1-0.2-0.1c-0.1,0-0.3,0-0.6,0H94.1z M94.1,38.8v0.9h0.6c0.2,0,0.4,0,0.4,0c0.1,0,0.2-0.1,0.2-0.1c0.1-0.1,0.1-0.2,0.1-0.3c0-0.1,0-0.2-0.1-0.2c0-0.1-0.1-0.1-0.2-0.1c-0.1,0-0.3,0-0.6,0H94.1z"></path><path fill="#77BC1F" d="M96.8,38.6c0-0.3,0-0.6,0.1-0.8c0.1-0.2,0.2-0.3,0.3-0.4c0.1-0.1,0.3-0.2,0.4-0.3c0.2-0.1,0.4-0.1,0.7-0.1c0.5,0,0.9,0.1,1.1,0.4c0.3,0.3,0.4,0.7,0.4,1.2c0,0.5-0.1,0.9-0.4,1.2c-0.3,0.3-0.7,0.4-1.1,0.4c-0.5,0-0.9-0.1-1.1-0.4C97,39.6,96.8,39.2,96.8,38.6z M97.5,38.6c0,0.4,0.1,0.6,0.3,0.8c0.2,0.2,0.4,0.3,0.6,0.3c0.3,0,0.5-0.1,0.6-0.3c0.2-0.2,0.3-0.5,0.3-0.8c0-0.4-0.1-0.6-0.2-0.8c-0.2-0.2-0.4-0.3-0.6-0.3c-0.3,0-0.5,0.1-0.7,0.3C97.6,38,97.5,38.2,97.5,38.6z"></path><path fill="#77BC1F" d="M100.9,37h2.2v0.5h-1.5v2.7h-0.7V37z"></path><path fill="#77BC1F" d="M103.5,38.6c0-0.3,0-0.6,0.1-0.8c0.1-0.2,0.2-0.3,0.3-0.4c0.1-0.1,0.3-0.2,0.4-0.3c0.2-0.1,0.4-0.1,0.7-0.1c0.5,0,0.9,0.1,1.1,0.4s0.4,0.7,0.4,1.2c0,0.5-0.1,0.9-0.4,1.2c-0.3,0.3-0.7,0.4-1.1,0.4c-0.5,0-0.9-0.1-1.1-0.4C103.7,39.6,103.5,39.2,103.5,38.6z M104.2,38.6c0,0.4,0.1,0.6,0.3,0.8c0.2,0.2,0.4,0.3,0.6,0.3c0.3,0,0.5-0.1,0.6-0.3c0.2-0.2,0.3-0.5,0.3-0.8c0-0.4-0.1-0.6-0.2-0.8c-0.2-0.2-0.4-0.3-0.6-0.3c-0.3,0-0.5,0.1-0.7,0.3C104.3,38,104.2,38.2,104.2,38.6z"></path><path fill="#77BC1F" d="M109.1,40.2V37h0.7v1.3h1.3V37h0.7v3.2h-0.7v-1.4h-1.3v1.4H109.1z"></path><path fill="#77BC1F" d="M115.7,40.2h-0.7l-0.3-0.7h-1.3l-0.3,0.7h-0.7l1.3-3.2h0.7L115.7,40.2z M114.4,39l-0.4-1.2l-0.4,1.2H114.4z"></path><path fill="#77BC1F" d="M118.3,39l0.6,0.2c-0.1,0.4-0.3,0.6-0.5,0.8c-0.2,0.2-0.5,0.3-0.9,0.3c-0.4,0-0.8-0.1-1.1-0.4c-0.3-0.3-0.4-0.7-0.4-1.2c0-0.5,0.1-1,0.4-1.3c0.3-0.3,0.6-0.4,1.1-0.4c0.4,0,0.7,0.1,1,0.4c0.1,0.1,0.3,0.3,0.3,0.6l-0.6,0.2c0-0.2-0.1-0.3-0.2-0.4c-0.1-0.1-0.3-0.1-0.4-0.1c-0.2,0-0.4,0.1-0.6,0.3c-0.1,0.2-0.2,0.5-0.2,0.8c0,0.4,0.1,0.7,0.2,0.9c0.1,0.2,0.3,0.3,0.6,0.3c0.2,0,0.3-0.1,0.4-0.2S118.2,39.3,118.3,39z"></path><path fill="#77BC1F" d="M120.4,40.2v-2.7h-1V37h2.6v0.5h-1v2.7H120.4z"></path><path fill="#77BC1F" d="M122.8,37h0.6v2.2l1.3-2.2h0.7v3.2h-0.6v-2.1l-1.3,2.1h-0.7V37z"></path><path fill="#77BC1F" d="M126.6,37h2.3v3.2h-0.7v-2.7h-1v1.4c0,0.4,0,0.7,0,0.8c0,0.2-0.1,0.3-0.2,0.4c-0.1,0.1-0.3,0.1-0.5,0.1c-0.1,0-0.2,0-0.4,0v-0.5l0.1,0c0.1,0,0.2,0,0.3-0.1c0,0,0.1-0.1,0.1-0.3l0-0.6V37z"></path><path fill="#77BC1F" d="M129.6,37h0.7l0.8,1.7l0.6-1.7h0.7l-1.1,2.5c-0.1,0.3-0.2,0.5-0.4,0.6c-0.1,0.1-0.3,0.2-0.5,0.2c-0.2,0-0.3,0-0.5,0v-0.5c0.1,0,0.2,0,0.3,0c0.2,0,0.3,0,0.3-0.1c0.1-0.1,0.1-0.2,0.2-0.4L129.6,37z"></path><path fill="#151515" d="M131.7,5.3h-4.2c-0.5,0-0.9,0.4-0.9,0.9c0,0.1,0,13.9,0,17.3L113.1,5.7c-0.1-0.2-0.4-0.4-0.8-0.4h-4.6c-0.5,0-1,0.4-1,1l0,26.7c0,0.5,0.3,0.9,0.8,0.9v0h0.1l4.2,0l0,0c0.5,0,0.9-0.4,0.9-0.9V15.7l13.4,17.8l0,0c0.1,0.1,0.3,0.4,0.8,0.4h4.5c0.5,0,1-0.4,1-1V6.3C132.6,5.7,132.2,5.3,131.7,5.3z"></path><path fill="#151515" d="M72.6,5.3H51.5c-0.5,0-1,0.4-1,1v4.2c0,0.5,0.4,1,1,1h13.8L50.9,28c-0.2,0.3-0.3,0.6-0.3,1v4c0,0.5,0.4,1,1,1h21.1c0.5,0,1-0.4,1-1v-4.2c0-0.5-0.4-1-1-1H58.8l14.3-16.5c0.3-0.3,0.4-0.7,0.4-1.1v-4C73.5,5.7,73.1,5.3,72.6,5.3z"></path><path fill="#151515" d="M83.9,33.9c0.5,0,0.9-0.4,0.9-0.9V19.3c0-0.5-0.4-0.9-0.9-0.9c-2.2,0-3.8,0-4.3,0c-0.5,0-0.9,0.4-0.9,0.9l0,13.7c0,0.9,0.7,0.9,1,0.9H83.9z"></path><polygon fill="#77BC1F" points="36.5,36.5 8.5,36.5 8.5,25.2 11.4,25.2 11.4,33.7 33.7,33.7 33.7,25.2 45,25.2 45,0 0,0 0,17 8.4,17 8.4,8.5 36.6,8.5 36.6,19.8 33.8,19.8 33.8,11.3 11.3,11.3 11.3,19.8 8.5,19.8 8.4,19.8 0,19.8 0,45 45,45 45,28 36.5,28 "></polygon><path fill="#151515" d="M102.4,14.9c0-5.6-4.5-9.6-10.1-9.6l-12.7,0l0,0c-0.5,0-0.9,0.4-0.9,0.9v4.2c0,0.5,0.2,0.9,0.9,0.9c1.3,0,7.8,0,12.7,0c2.3,0,3.9,1.3,3.9,3.5c0,2.6-2.5,3.5-3.9,3.5h-2.5c-0.5,0-1,0.4-1,1v4.9c0,0.3,0.1,0.7,0.3,0.9c0.2,0.3,5.5,8.3,5.7,8.6c0.2,0.2,0.3,0.2,0.6,0.2h4.5c0.5,0,1-0.4,1-1v-0.6c0-0.3-0.1-0.6-0.3-0.9l-4.9-7.6C100,22.4,102.4,18.9,102.4,14.9z"></path><path fill="#77BC1F" d="M142.5,5.6c0,0.9-0.8,1.6-1.7,1.6c-0.9,0-1.6-0.7-1.7-1.6H138v5.6h5.6V5.6H142.5z"></path></g></svg>